<mxfile host="app.diagrams.net" modified="2024-02-16T15:41:29.726Z" agent="Mozilla/5.0 (Windows NT 10.0; Win64; x64) AppleWebKit/537.36 (KHTML, like Gecko) Chrome/121.0.0.0 Safari/537.36 Edg/121.0.0.0" version="23.1.5" etag="5oYwN47RgMbVO7FYs-MR" type="github">
  <diagram name="Page-1" id="VXvC3_kLC0fLa716jNJa">
    <mxGraphModel>
      <root>
        <mxCell id="0" />
        <mxCell id="1" parent="0" />
      </root>
    </mxGraphModel>
  </diagram>
</mxfile>
